<svg width="35" height="64" viewBox="0 0 35 64" fill="none" xmlns="http://www.w3.org/2000/svg">
<path opacity="0.5" fill-rule="evenodd" clip-rule="evenodd" d="M1.16618 63.064C2.45479 64.312 4.53884 64.312 5.82428 63.064L33.0697 36.6206C33.6796 36.0377 34.1652 35.3361 34.497 34.5586C34.8289 33.781 35 32.9438 35 32.0976C35 31.2515 34.8289 30.4142 34.497 29.6366C34.1652 28.8591 33.6796 28.1575 33.0697 27.5746L5.62701 0.935981C5.00419 0.340643 4.1794 0.00602364 3.32016 8.05364e-05C2.46091 -0.00586257 1.63163 0.317316 1.00073 0.903983C0.688187 1.1937 0.438115 1.54485 0.265996 1.9357C0.093876 2.32656 0.00337353 2.74878 9.25264e-05 3.17624C-0.00318848 3.60369 0.0808219 4.02727 0.246921 4.42075C0.413021 4.81422 0.657672 5.16922 0.965727 5.46375L26.0826 29.8369C26.3877 30.1284 26.6308 30.4793 26.7968 30.8682C26.9629 31.2571 27.0485 31.6759 27.0485 32.0992C27.0485 32.5225 26.9629 32.9413 26.7968 33.3302C26.6308 33.7192 26.3877 34.07 26.0826 34.3615L1.16618 58.5427C0.861079 58.8339 0.618114 59.1845 0.452082 59.5731C0.28605 59.9618 0.200426 60.3804 0.200426 60.8034C0.200426 61.2264 0.28605 61.645 0.452082 62.0336C0.618114 62.4223 0.861079 62.7729 1.16618 63.064Z" fill="black"/>
</svg>
