<svg width="585" height="575" viewBox="0 0 585 575" fill="none" xmlns="http://www.w3.org/2000/svg">
<path d="M491.818 143.453C518.359 186.926 549.838 224.331 568.292 270.962C586.747 317.593 591.896 374.079 573.617 421.594C555.338 469.11 513.35 508.282 467.254 535.082C420.878 562.508 370.112 578.19 323.153 573.749C276.193 569.308 232.141 545.096 196.175 517.726C159.929 490.984 130.59 462.062 95.3508 429.75C60.1118 397.438 18.4121 362.989 5.23968 319.472C-8.21317 276.582 6.86132 224.624 32.9516 182.859C58.7042 140.19 96.0334 106.46 135.949 76.8972C176.145 46.7069 218.59 19.7799 266.775 8.21247C314.622 -4.25851 368.488 -1.99712 405.914 23.7672C443.058 50.1587 465.278 99.9787 491.818 143.453Z" fill="url(#paint0_linear_87_14)" fill-opacity="0.4"/>
<defs>
<linearGradient id="paint0_linear_87_14" x1="-70.5194" y1="408.593" x2="669.309" y2="91.2985" gradientUnits="userSpaceOnUse">
<stop stop-color="#B0C3FF"/>
<stop offset="1" stop-color="#3658C1"/>
</linearGradient>
</defs>
</svg>
