<svg width="74" height="75" viewBox="0 0 74 75" fill="none" xmlns="http://www.w3.org/2000/svg">
<path fill-rule="evenodd" clip-rule="evenodd" d="M6.85185 0C3.06771 0 0 3.07125 0 6.85976V16.0061V48.3477V68.1402C0 71.9287 3.06771 75 6.85185 75H67.1481C70.9323 75 74 71.9287 74 68.1402V49.6828V29.99V16.0061V6.85976C74 3.07125 70.9323 0 67.1481 0H38.6935H6.85185ZM69.4321 13.7195V6.85976C69.4321 5.59692 68.4095 4.57317 67.1481 4.57317H38.6935H6.85185C5.59047 4.57317 4.5679 5.59692 4.5679 6.85976V13.7195H69.4321ZM4.5679 18.2927H69.4321V29.99V49.6828V68.1402C69.4321 69.4031 68.4095 70.4268 67.1481 70.4268H6.85185C5.59047 70.4268 4.5679 69.4031 4.5679 68.1402V48.3477V18.2927ZM33.6318 54.7901C32.4189 54.4431 31.7167 53.1776 32.0632 51.9633L37.5447 32.756C37.8912 31.5417 39.1553 30.8386 40.3682 31.1855C41.5811 31.5325 42.2833 32.798 41.9368 34.0123L36.4553 53.2196C36.1088 54.4339 34.8447 55.137 33.6318 54.7901ZM8.67901 11.4329C9.68815 11.4329 10.5062 10.614 10.5062 9.60366C10.5062 8.59335 9.68815 7.77439 8.67901 7.77439C7.66987 7.77439 6.85185 8.59335 6.85185 9.60366C6.85185 10.614 7.66987 11.4329 8.67901 11.4329ZM16.9012 9.60366C16.9012 10.614 16.0832 11.4329 15.0741 11.4329C14.0649 11.4329 13.2469 10.614 13.2469 9.60366C13.2469 8.59335 14.0649 7.77439 15.0741 7.77439C16.0832 7.77439 16.9012 8.59335 16.9012 9.60366ZM21.4691 11.4329C22.4783 11.4329 23.2963 10.614 23.2963 9.60366C23.2963 8.59335 22.4783 7.77439 21.4691 7.77439C20.46 7.77439 19.642 8.59335 19.642 9.60366C19.642 10.614 20.46 11.4329 21.4691 11.4329ZM46.3108 31.8053C47.1819 30.8919 48.6275 30.8582 49.54 31.7301L58.2047 40.0106C59.9014 41.632 59.9014 44.3437 58.2047 45.965L49.54 54.2455C48.6275 55.1174 47.1819 55.0837 46.3108 54.1703C45.4399 53.2568 45.4735 51.8095 46.3859 50.9374L54.7045 42.9878L46.3859 35.0382C45.4735 34.1662 45.4399 32.7188 46.3108 31.8053ZM24.46 54.2455C25.3725 55.1174 26.8181 55.0837 27.6892 54.1703C28.5601 53.2568 28.5265 51.8095 27.6141 50.9374L19.2955 42.9878L27.6141 35.0382C28.5265 34.1662 28.5601 32.7188 27.6892 31.8053C26.8181 30.8919 25.3725 30.8582 24.46 31.7301L15.7953 40.0106C14.0986 41.632 14.0986 44.3437 15.7953 45.965L24.46 54.2455Z" fill="url(#paint0_linear_82_67)"/>
<defs>
<linearGradient id="paint0_linear_82_67" x1="37" y1="0" x2="37" y2="75" gradientUnits="userSpaceOnUse">
<stop stop-color="#09A4FB"/>
<stop offset="1" stop-color="#3840F3"/>
</linearGradient>
</defs>
</svg>
